<svg width="242" height="54" viewBox="0 0 242 54" fill="none" xmlns="http://www.w3.org/2000/svg">
<rect x="0.693359" width="240.573" height="54" rx="10" fill="#0C63E7"/>
<path d="M110.482 24.2544C110.482 25.0324 110.298 25.7664 109.931 26.4563C109.564 27.1463 108.977 27.7115 108.17 28.1519C107.363 28.5776 106.328 28.7904 105.065 28.7904H102.291V35H99.7804V19.6963H105.065C106.24 19.6963 107.23 19.9018 108.038 20.3128C108.86 20.7092 109.469 21.2523 109.865 21.9423C110.276 22.6322 110.482 23.4029 110.482 24.2544ZM105.065 26.7426C106.019 26.7426 106.731 26.5297 107.201 26.104C107.671 25.6636 107.906 25.0471 107.906 24.2544C107.906 22.5809 106.959 21.7441 105.065 21.7441H102.291V26.7426H105.065ZM118.139 35.1982C116.994 35.1982 115.959 34.9413 115.034 34.4275C114.109 33.899 113.383 33.165 112.854 32.2255C112.326 31.2713 112.061 30.1703 112.061 28.9225C112.061 27.6894 112.333 26.5958 112.876 25.6416C113.419 24.6874 114.161 23.9534 115.1 23.4396C116.04 22.9258 117.089 22.6689 118.249 22.6689C119.409 22.6689 120.458 22.9258 121.398 23.4396C122.337 23.9534 123.079 24.6874 123.622 25.6416C124.165 26.5958 124.436 27.6894 124.436 28.9225C124.436 30.1557 124.158 31.2493 123.6 32.2035C123.042 33.1577 122.279 33.899 121.31 34.4275C120.355 34.9413 119.299 35.1982 118.139 35.1982ZM118.139 33.0182C118.785 33.0182 119.387 32.8641 119.944 32.5558C120.517 32.2475 120.979 31.7851 121.332 31.1686C121.684 30.552 121.86 29.8033 121.86 28.9225C121.86 28.0418 121.691 27.3004 121.354 26.6986C121.016 26.082 120.568 25.6196 120.011 25.3113C119.453 25.003 118.851 24.8489 118.205 24.8489C117.559 24.8489 116.957 25.003 116.399 25.3113C115.856 25.6196 115.423 26.082 115.1 26.6986C114.777 27.3004 114.616 28.0418 114.616 28.9225C114.616 30.2291 114.946 31.242 115.607 31.9613C116.282 32.6659 117.126 33.0182 118.139 33.0182ZM131.322 35.1982C130.368 35.1982 129.509 35.0294 128.746 34.6917C127.997 34.3394 127.402 33.8697 126.962 33.2825C126.522 32.6806 126.287 32.0127 126.257 31.2787H128.856C128.9 31.7925 129.142 32.2255 129.582 32.5778C130.037 32.9155 130.603 33.0843 131.278 33.0843C131.983 33.0843 132.526 32.9522 132.907 32.6879C133.304 32.409 133.502 32.0567 133.502 31.631C133.502 31.1759 133.282 30.8383 132.841 30.6181C132.416 30.3979 131.733 30.1557 130.793 29.8914C129.883 29.6419 129.142 29.3996 128.569 29.1648C127.997 28.9299 127.498 28.5702 127.072 28.0858C126.661 27.6014 126.456 26.9628 126.456 26.1701C126.456 25.5242 126.646 24.937 127.028 24.4085C127.41 23.8653 127.953 23.4396 128.658 23.1314C129.377 22.8231 130.199 22.6689 131.124 22.6689C132.504 22.6689 133.612 23.0213 134.449 23.7259C135.3 24.4158 135.755 25.3627 135.814 26.5664H133.304C133.26 26.0233 133.04 25.5902 132.643 25.2673C132.247 24.9443 131.711 24.7828 131.036 24.7828C130.375 24.7828 129.869 24.9076 129.516 25.1572C129.164 25.4067 128.988 25.737 128.988 26.1481C128.988 26.471 129.105 26.7426 129.34 26.9628C129.575 27.183 129.861 27.3591 130.199 27.4913C130.537 27.6087 131.036 27.7628 131.696 27.9537C132.577 28.1886 133.296 28.4308 133.854 28.6803C134.427 28.9152 134.919 29.2675 135.33 29.7373C135.741 30.207 135.953 30.8309 135.968 31.609C135.968 32.2989 135.777 32.9155 135.396 33.4586C135.014 34.0018 134.471 34.4275 133.766 34.7358C133.076 35.044 132.261 35.1982 131.322 35.1982ZM141.609 24.915V31.631C141.609 32.0861 141.712 32.4163 141.917 32.6219C142.138 32.8127 142.505 32.9081 143.018 32.9081H144.56V35H142.578C141.448 35 140.582 34.7358 139.98 34.2073C139.378 33.6788 139.077 32.82 139.077 31.631V24.915H137.646V22.8671H139.077V19.8504H141.609V22.8671H144.56V24.915H141.609Z" fill="white"/>
</svg>
