<svg width="26" height="25" viewBox="0 0 26 25" fill="none" xmlns="http://www.w3.org/2000/svg">
<path fill-rule="evenodd" clip-rule="evenodd" d="M15.4464 12.5005L24.3901 3.55677C25.2047 2.74219 25.2047 1.42552 24.3901 0.610937C23.5755 -0.203646 22.2589 -0.203646 21.4443 0.610937L12.5005 9.55469L3.55677 0.610937C2.74219 -0.203646 1.42552 -0.203646 0.610937 0.610937C-0.203646 1.42552 -0.203646 2.74219 0.610937 3.55677L9.55469 12.5005L0.610937 21.4443C-0.203646 22.2589 -0.203646 23.5755 0.610937 24.3901C1.01719 24.7964 1.55052 25.0005 2.08385 25.0005C2.61719 25.0005 3.15052 24.7964 3.55677 24.3901L12.5005 15.4464L21.4443 24.3901C21.8505 24.7964 22.3839 25.0005 22.9172 25.0005C23.4505 25.0005 23.9839 24.7964 24.3901 24.3901C25.2047 23.5755 25.2047 22.2589 24.3901 21.4443L15.4464 12.5005Z" fill="white"/>
</svg>
